<svg xmlns="http://www.w3.org/2000/svg" viewBox="0 0 512 512" role="img" aria-labelledby="title desc">
  <title id="title">BizYako logo</title>
  <desc id="desc">Rounded teal square with white BizYako monogram.</desc>
  <rect x="52" y="36" width="408" height="440" rx="88" fill="#08bd94"/>
  <path fill="#ffffff" d="M162 105c0-16 9-25 25-25h31c15 0 24 9 24 25v145c18-24 42-36 73-36 34 0 63 13 87 39 8 9 8 19 2 30l-24 39c-7 12-18 13-28 4-14-13-29-20-47-20-29 0-52 21-52 50 0 31 23 53 55 53h27c15 0 22 12 15 26l-15 31c-5 10-14 15-26 15h-19c-35 0-67-12-94-36-32-28-50-67-50-114V105z"/>
  <path fill="#ffffff" d="M353 214h70c14 0 22 14 15 26L321 454c-5 10-14 15-25 15h-36c-14 0-22-14-15-26l85-153c5-9 13-14 23-14h28l-43 79 62-126c5-10 14-15 26-15z"/>
</svg>
