<svg xmlns="http://www.w3.org/2000/svg" viewBox="0 0 512 512" role="img" aria-labelledby="title desc">
  <title id="title">BizYako logo</title>
  <desc id="desc">Teal rounded square with a white stylized b and angled y mark.</desc>
  <rect x="54" y="34" width="404" height="444" rx="88" fill="#08bd94"/>

  <defs>
    <mask id="bowl-cutout">
      <rect width="512" height="512" fill="black"/>
      <rect x="150" y="94" width="48" height="210" rx="12" fill="white"/>
      <ellipse cx="276" cy="292" rx="92" ry="82" fill="white"/>
      <ellipse cx="284" cy="306" rx="48" ry="51" fill="black"/>
      <rect x="190" y="94" width="76" height="140" fill="black"/>
      <rect x="206" y="236" width="52" height="92" fill="white"/>
    </mask>
  </defs>

  <rect x="150" y="94" width="48" height="210" rx="12" fill="#ffffff"/>
  <ellipse cx="276" cy="292" rx="92" ry="82" fill="#ffffff" mask="url(#bowl-cutout)"/>
  <path fill="#ffffff" d="M354 248h55c9 0 15 9 10 17L312 428c-4 7-10 10-18 10h-47c-8 0-13-9-9-16l95-163c4-7 11-11 21-11z"/>
</svg>
